<?xml version="1.0" encoding="UTF-8"?>
<svg width="27px" height="27px" viewBox="0 0 27 27" version="1.1" xmlns="http://www.w3.org/2000/svg" xmlns:xlink="http://www.w3.org/1999/xlink">
    <!-- Generator: Sketch 57.1 (83088) - https://sketch.com -->
    <title>Tick in Sir</title>
    <desc>Created with Sketch.</desc>
    <g id="Page-1" stroke="none" stroke-width="1" fill="none" fill-rule="evenodd">
        <g id="Apple-TV" transform="translate(-247.000000, -72.000000)">
            <g id="Group" transform="translate(60.000000, 65.000000)">
                <g id="Tick-in-Sir" transform="translate(188.000000, 8.000000)">
                    <circle id="Oval" stroke="#FFFFFF" stroke-width="2" cx="12.5" cy="12.5" r="12.5"></circle>
                    <path d="M14.1457944,7.2603265 C14.7733907,7.2603265 15.2821581,7.76909383 15.2821581,8.39669014 L15.2821581,16.3512356 C15.2821581,16.9788319 14.7733907,17.4875992 14.1457944,17.4875992 C13.5181981,17.4875992 13.0094308,16.9788319 13.0094308,16.3512356 L13.0094308,8.39669014 C13.0094308,7.76909383 13.5181981,7.2603265 14.1457944,7.2603265 Z" id="Rectangle" fill="#FFFFFF" fill-rule="nonzero" transform="translate(14.145794, 12.373963) rotate(45.000000) translate(-14.145794, -12.373963) "></path>
                    <path d="M9.58383869,11.8841229 C10.2100849,11.8841229 10.7177577,12.3917958 10.7177577,13.018042 C10.7177577,13.0188559 10.7177577,13.01967 10.7177577,13.0204839 L10.7107595,16.2687887 C10.7094071,16.896779 10.1999405,17.4051497 9.57194863,17.4051497 C8.9457025,17.4051497 8.43802966,16.8974768 8.43802966,16.2712306 C8.43802966,16.2704167 8.43802966,16.2696026 8.43802966,16.2687887 L8.44502778,13.0204839 C8.44638022,12.3924936 8.95584693,11.8841229 9.58383869,11.8841229 Z" id="Rectangle" fill="#FFFFFF" fill-rule="nonzero" transform="translate(9.577894, 14.644636) rotate(-45.000000) translate(-9.577894, -14.644636) "></path>
                </g>
            </g>
        </g>
    </g>
</svg>