<?xml version="1.0" encoding="UTF-8"?>
<svg width="28px" height="29px" viewBox="0 0 28 29" version="1.1" xmlns="http://www.w3.org/2000/svg" xmlns:xlink="http://www.w3.org/1999/xlink">
    <!-- Generator: Sketch 57.1 (83088) - https://sketch.com -->
    <title>Risorsa 1</title>
    <desc>Created with Sketch.</desc>
    <g id="Page-1" stroke="none" stroke-width="1" fill="none" fill-rule="evenodd">
        <g id="Apple-TV" transform="translate(-183.000000, -79.000000)" stroke="#FFFFFF" stroke-width="1.9">
            <g id="Group" transform="translate(114.000000, 70.000000)">
                <g id="Risorsa-1" transform="translate(70.000000, 10.000000)">
                    <path d="M14,11 C14,14.3137085 11.0898509,17 7.5,17 C3.91014913,17 1,14.3137085 1,11 L14,11 Z" id="Path"></path>
                    <rect id="Rectangle" x="0" y="8" width="15" height="3" rx="0.34"></rect>
                    <g id="Group" transform="translate(1.000000, 0.000000)">
                        <path d="M1.0725,7.808 L1.0725,2.016 C1.0725,1.29140241 1.66908057,0.703999945 2.405,0.703999945 L2.405,0.703999945 C3.14635689,0.703793069 3.75234867,1.2862555 3.77,2.016 L3.77,7.808" id="Path"></path>
                        <path d="M9.62,7.808 L9.62,2.016 C9.62,1.29140241 10.2165806,0.704 10.9525,0.704 C11.3145739,0.70874119 11.6619877,0.845568777 11.9275,1.088 C12.1663934,1.34122751 12.3048183,1.67060772 12.3175,2.016 L12.3175,7.808" id="Path"></path>
                    </g>
                    <path d="M7,16.9856459 L7,20.7799043 C7,24.2151683 9.83552992,27 13.3333333,27 L13.3333333,27 C16.8311367,27 19.6666667,24.2151683 19.6666667,20.7799043 L19.6666667,4.11004785 C19.6666667,2.39241585 21.0844316,1 22.8333333,1 L22.8333333,1 C24.582235,1 26,2.39241585 26,4.11004785 L26,26.937799" id="Path"></path>
                </g>
            </g>
        </g>
    </g>
</svg>